<svg width="428" height="846" viewBox="0 0 428 846" fill="none" xmlns="http://www.w3.org/2000/svg">
<path d="M22 263C22 158.066 108.066 73 213 73V73C317.934 73 404 158.066 404 263V842H22V263Z" fill="url(#paint0_linear_261_1421)"/>
<g filter="url(#filter0_b_261_1421)">
<rect width="428" height="846" fill="url(#paint1_linear_261_1421)"/>
</g>
<path d="M23 282C23 177.066 109.066 92 214 92V92C318.934 92 405 177.066 405 282V846H23V282Z" fill="url(#paint2_linear_261_1421)"/>
<rect x="235" y="444" width="170" height="50" fill="#7D4A6A"/>
<rect x="205" y="494" width="200" height="50" fill="#75476F"/>
<rect x="175" y="544" width="230" height="50" fill="#6A4271"/>
<rect x="145" y="594" width="260" height="50" fill="#5B3B6D"/>
<rect x="115" y="644" width="290" height="50" fill="#4E346A"/>
<rect x="85" y="694" width="320" height="50" fill="#452F65"/>
<rect x="55" y="744" width="350" height="50" fill="#402C5E"/>
<rect x="22" y="794" width="383" height="52" fill="#291F39"/>
<circle cx="44.5" cy="142.5" r="3.5" fill="#F7E1C1"/>
<circle cx="103.5" cy="82.5" r="2.5" fill="#F7E1C1"/>
<circle cx="167.5" cy="75.5" r="4.5" fill="#F7E1C1"/>
<circle cx="305.5" cy="50.5" r="4.5" fill="#F7E1C1"/>
<circle cx="385.5" cy="56.5" r="1.5" fill="#F7E1C1"/>
<circle cx="126.5" cy="38.5" r="1.5" fill="#F7E1C1"/>
<circle cx="49.5" cy="88.5" r="1.5" fill="#F7E1C1"/>
<circle cx="223" cy="49" r="3" fill="#F7E1C1"/>
<circle cx="322.5" cy="104.5" r="2.5" fill="#F7E1C1"/>
<circle cx="385.5" cy="114.5" r="4.5" fill="#F7E1C1"/>
<path d="M142.006 201.36C146.986 201.36 149.056 198.93 149.056 193.89V183.81H145.246V194.34C145.246 196.86 144.226 198.12 142.006 198.12C139.816 198.12 138.706 196.86 138.706 194.58V193.14H142.066V190.2H141.526C139.756 190.2 138.766 188.85 138.766 187.2V186.81H141.796V183.81H138.706C136.396 183.81 135.196 185.01 135.196 186.78V186.9C135.196 188.85 136.756 189.99 138.706 190.23V190.38H138.406C136.246 190.38 134.866 192.24 134.866 194.73V195.24C134.866 199.11 137.416 201.36 142.006 201.36ZM136.234 181.59H148.984V178.74H136.234V181.59ZM158.883 201.36C161.613 201.36 163.023 199.86 163.653 198.15H163.803V201H167.613V183.81H163.803V195.21C163.803 197.13 162.003 198.03 160.233 198.03C158.163 198.03 157.263 196.77 157.263 194.25V183.81H153.423V194.76C153.423 198.96 155.433 201.36 158.883 201.36ZM178.173 201H179.403V197.67H178.623C176.283 197.67 175.323 196.56 175.323 193.59V190.77C175.323 188.16 176.583 186.75 178.833 186.75C181.053 186.75 182.253 188.07 182.253 190.56V201H186.063V190.56C186.063 186.06 183.633 183.45 178.953 183.45C173.793 183.45 171.393 186.69 171.393 192.69C171.393 198.57 173.463 201 178.173 201ZM173.122 181.59H182.182C184.582 181.59 185.872 180.42 185.872 177.84V175.62H182.422V178.74H173.122V181.59ZM196.275 201H198.015V197.79H196.815C194.385 197.79 193.545 196.77 193.545 193.71V190.77C193.545 188.37 194.265 186.9 195.585 186.9L197.445 189.06H197.505L199.395 186.9C200.475 186.99 200.835 187.68 200.835 189.72V201H204.675V188.97C204.675 185.16 202.395 183.45 199.395 183.45L197.505 185.79H197.445L195.555 183.45C191.775 183.45 189.675 186.15 189.675 192.15C189.675 198.57 191.475 201 196.275 201ZM200.755 178.74C200.605 176.28 199.795 175.56 197.305 175.56H195.475V178.44H197.725V181.59H205.495V178.74H200.755ZM215.419 201.36C220.369 201.36 222.889 198.09 222.889 192.24C222.889 186.69 220.339 183.45 215.269 183.45C211.969 183.45 209.599 184.83 208.459 187.38L211.759 189.03C212.359 187.65 213.469 186.63 215.329 186.63C217.639 186.63 218.869 188.19 218.869 190.74V194.46C218.869 196.95 217.669 198.27 215.419 198.27C213.139 198.27 211.999 197.07 211.999 194.61V193.98H214.849V190.98H211.729C209.539 190.98 208.309 192.18 208.309 194.55V194.76C208.309 198.9 211.039 201.36 215.419 201.36ZM231.979 201.36C234.709 201.36 236.119 199.86 236.749 198.15H236.899V201H240.709V183.81H236.899V195.21C236.899 197.13 235.099 198.03 233.329 198.03C231.259 198.03 230.359 196.77 230.359 194.25V183.81H226.519V194.76C226.519 198.96 228.529 201.36 231.979 201.36ZM251.239 201.36C255.049 201.36 257.569 199.38 257.569 195.93C257.569 193.08 256.069 191.28 252.409 190.8L251.149 190.62C249.619 190.44 248.659 189.81 248.659 188.58C248.659 187.41 249.619 186.63 251.149 186.63C252.649 186.63 253.879 187.32 254.899 188.49L257.419 186.27C256.039 184.47 254.029 183.45 251.239 183.45C247.879 183.45 245.089 185.1 245.089 188.79C245.089 191.76 246.949 193.2 250.399 193.74L251.479 193.92C253.429 194.22 254.029 195.12 254.029 196.11C254.029 197.37 252.919 198.15 251.359 198.15C249.469 198.15 248.029 197.31 246.739 195.69L244.249 197.97C245.869 200.04 248.029 201.36 251.239 201.36ZM254.385 181.59H260.235V178.74H253.785V176.34H250.365V177.66C250.365 180.39 251.715 181.59 254.385 181.59ZM268.287 201.36C273.267 201.36 275.337 198.93 275.337 193.89V183.81H271.527V194.34C271.527 196.86 270.537 198.12 268.287 198.12C266.037 198.12 265.047 196.86 265.047 194.34V183.81H261.207V193.89C261.207 198.93 263.277 201.36 268.287 201.36ZM294.812 185.76V182.88H292.292C291.002 182.88 290.252 183.48 290.222 184.77C289.202 183.9 287.702 183.54 285.992 183.54C282.782 183.54 280.502 184.92 279.272 186.9L281.672 189.06C282.512 187.86 283.712 186.78 285.812 186.78C288.152 186.78 289.202 187.92 289.202 190.08V190.89H285.362C281.162 190.89 279.032 192.66 279.032 195.9C279.032 199.23 281.102 201 284.672 201H286.712V197.82H285.092C283.622 197.82 282.812 197.22 282.812 195.99V195.51C282.812 194.34 283.682 193.68 285.332 193.68H289.202V201H292.982V190.41C292.982 188.46 292.562 187.11 291.782 186.27V185.76H294.812ZM288.179 209.79H290.429C292.079 209.79 292.949 208.92 292.949 207.3V203.04H290.069L290.099 207.51H288.509V205.68C288.509 203.85 287.669 203.04 285.839 203.04H284.009V205.74H285.629V207.3C285.629 208.92 286.529 209.79 288.179 209.79ZM289.169 181.59H292.739V175.68H289.169V181.59ZM196.477 224.76V221.88H193.957C192.667 221.88 191.917 222.48 191.887 223.77C190.867 222.9 189.367 222.54 187.657 222.54C184.447 222.54 182.167 223.92 180.937 225.9L183.337 228.06C184.177 226.86 185.377 225.78 187.477 225.78C189.817 225.78 190.867 226.92 190.867 229.08V229.89H187.027C182.827 229.89 180.697 231.66 180.697 234.9C180.697 238.23 182.767 240 186.337 240H188.377V236.82H186.757C185.287 236.82 184.477 236.22 184.477 234.99V234.51C184.477 233.34 185.347 232.68 186.997 232.68H190.867V240H194.647V229.41C194.647 227.46 194.227 226.11 193.447 225.27V224.76H196.477ZM192.574 220.8C194.824 220.8 195.814 219.6 195.814 218.01V217.17C195.814 215.61 194.824 214.41 192.574 214.41C190.324 214.41 189.334 215.61 189.334 217.17V218.01C189.334 219.6 190.324 220.8 192.574 220.8ZM192.574 218.76C191.824 218.76 191.494 218.4 191.494 217.59C191.494 216.81 191.824 216.42 192.574 216.42C193.264 216.42 193.594 216.81 193.594 217.59C193.594 218.4 193.264 218.76 192.574 218.76ZM206.329 240H210.169V228.45C210.169 224.58 207.919 222.45 203.929 222.45C200.839 222.45 198.829 223.65 197.569 225.66L199.999 227.85C200.809 226.65 201.979 225.69 203.719 225.69C205.489 225.69 206.329 226.74 206.329 228.63V240ZM219.982 240.36C222.712 240.36 224.122 238.86 224.752 237.15H224.902V240H228.712V222.81H224.902V234.21C224.902 236.13 223.102 237.03 221.332 237.03C219.262 237.03 218.362 235.77 218.362 233.25V222.81H214.522V233.76C214.522 237.96 216.532 240.36 219.982 240.36ZM225.776 220.59H231.626V217.74H225.176V215.34H221.756V216.66C221.756 219.39 223.106 220.59 225.776 220.59ZM240.292 222.45C235.732 222.45 232.912 224.97 232.912 229.44V230.82H236.962V230.97C235.162 231.33 233.422 232.65 233.422 235.38V240H237.262V234.99C237.262 232.11 238.132 231.03 240.082 230.91V228.27H236.632C236.902 226.5 238.132 225.6 240.172 225.6C242.512 225.6 243.802 226.92 243.802 229.38V240H247.642V229.56C247.642 225.09 245.182 222.45 240.292 222.45ZM149.558 276.3C147.638 276.3 146.028 276.02 144.728 275.46C143.448 274.9 142.478 274.17 141.818 273.27C141.158 272.37 140.808 271.41 140.768 270.39C140.768 270.23 140.828 270.09 140.948 269.97C141.068 269.83 141.218 269.76 141.398 269.76H144.608C144.868 269.76 145.068 269.82 145.208 269.94C145.348 270.04 145.478 270.17 145.598 270.33C145.738 270.67 145.958 271 146.258 271.32C146.578 271.64 147.008 271.91 147.548 272.13C148.088 272.33 148.758 272.43 149.558 272.43C150.858 272.43 151.828 272.22 152.468 271.8C153.128 271.38 153.458 270.81 153.458 270.09C153.458 269.57 153.278 269.15 152.918 268.83C152.578 268.51 152.028 268.22 151.268 267.96C150.528 267.7 149.538 267.42 148.298 267.12C146.798 266.8 145.518 266.39 144.458 265.89C143.418 265.37 142.628 264.71 142.088 263.91C141.568 263.09 141.308 262.08 141.308 260.88C141.308 259.68 141.638 258.62 142.298 257.7C142.958 256.76 143.888 256.03 145.088 255.51C146.288 254.97 147.718 254.7 149.378 254.7C150.718 254.7 151.898 254.88 152.918 255.24C153.958 255.6 154.818 256.07 155.498 256.65C156.198 257.23 156.728 257.85 157.088 258.51C157.448 259.17 157.638 259.81 157.658 260.43C157.658 260.59 157.598 260.74 157.478 260.88C157.358 261 157.208 261.06 157.028 261.06H153.668C153.468 261.06 153.288 261.02 153.128 260.94C152.968 260.86 152.838 260.72 152.738 260.52C152.618 260 152.258 259.55 151.658 259.17C151.078 258.77 150.318 258.57 149.378 258.57C148.398 258.57 147.618 258.75 147.038 259.11C146.478 259.47 146.198 260.02 146.198 260.76C146.198 261.24 146.338 261.65 146.618 261.99C146.918 262.31 147.408 262.6 148.088 262.86C148.788 263.1 149.708 263.37 150.848 263.67C152.608 264.03 154.038 264.46 155.138 264.96C156.238 265.46 157.048 266.11 157.568 266.91C158.088 267.69 158.348 268.68 158.348 269.88C158.348 271.22 157.968 272.37 157.208 273.33C156.468 274.29 155.438 275.03 154.118 275.55C152.818 276.05 151.298 276.3 149.558 276.3ZM162.319 276C162.099 276 161.919 275.93 161.779 275.79C161.639 275.65 161.569 275.47 161.569 275.25V255.75C161.569 255.53 161.639 255.35 161.779 255.21C161.919 255.07 162.099 255 162.319 255H165.499C165.719 255 165.899 255.07 166.039 255.21C166.179 255.35 166.249 255.53 166.249 255.75V262.59L172.429 255.57C172.509 255.45 172.639 255.33 172.819 255.21C173.019 255.07 173.279 255 173.599 255H177.229C177.409 255 177.559 255.07 177.679 255.21C177.799 255.33 177.859 255.47 177.859 255.63C177.859 255.77 177.819 255.89 177.739 255.99L170.029 265.05L178.309 275.01C178.389 275.09 178.429 275.21 178.429 275.37C178.429 275.53 178.369 275.68 178.249 275.82C178.129 275.94 177.979 276 177.799 276H174.049C173.689 276 173.419 275.92 173.239 275.76C173.059 275.6 172.939 275.49 172.879 275.43L166.249 267.75V275.25C166.249 275.47 166.179 275.65 166.039 275.79C165.899 275.93 165.719 276 165.499 276H162.319ZM188.278 276.3C186.458 276.3 184.888 276 183.568 275.4C182.248 274.8 181.218 273.9 180.478 272.7C179.738 271.48 179.338 269.95 179.278 268.11C179.258 267.25 179.248 266.4 179.248 265.56C179.248 264.7 179.258 263.83 179.278 262.95C179.338 261.15 179.738 259.64 180.478 258.42C181.238 257.18 182.278 256.25 183.598 255.63C184.938 255.01 186.498 254.7 188.278 254.7C190.038 254.7 191.578 255.01 192.898 255.63C194.238 256.25 195.288 257.18 196.048 258.42C196.808 259.64 197.208 261.15 197.248 262.95C197.288 263.83 197.308 264.7 197.308 265.56C197.308 266.4 197.288 267.25 197.248 268.11C197.188 269.95 196.788 271.48 196.048 272.7C195.308 273.9 194.278 274.8 192.958 275.4C191.638 276 190.078 276.3 188.278 276.3ZM188.278 272.43C189.438 272.43 190.388 272.08 191.128 271.38C191.888 270.66 192.288 269.52 192.328 267.96C192.368 267.08 192.388 266.26 192.388 265.5C192.388 264.72 192.368 263.9 192.328 263.04C192.308 262 192.118 261.15 191.758 260.49C191.398 259.83 190.918 259.35 190.318 259.05C189.738 258.73 189.058 258.57 188.278 258.57C187.498 258.57 186.808 258.73 186.208 259.05C185.608 259.35 185.128 259.83 184.768 260.49C184.428 261.15 184.238 262 184.198 263.04C184.178 263.9 184.168 264.72 184.168 265.5C184.168 266.26 184.178 267.08 184.198 267.96C184.258 269.52 184.658 270.66 185.398 271.38C186.138 272.08 187.098 272.43 188.278 272.43ZM209.372 276.3C207.552 276.3 205.982 276 204.662 275.4C203.342 274.8 202.312 273.9 201.572 272.7C200.832 271.48 200.432 269.95 200.372 268.11C200.352 267.25 200.342 266.4 200.342 265.56C200.342 264.7 200.352 263.83 200.372 262.95C200.432 261.15 200.832 259.64 201.572 258.42C202.332 257.18 203.372 256.25 204.692 255.63C206.032 255.01 207.592 254.7 209.372 254.7C211.132 254.7 212.672 255.01 213.992 255.63C215.332 256.25 216.382 257.18 217.142 258.42C217.902 259.64 218.302 261.15 218.342 262.95C218.382 263.83 218.402 264.7 218.402 265.56C218.402 266.4 218.382 267.25 218.342 268.11C218.282 269.95 217.882 271.48 217.142 272.7C216.402 273.9 215.372 274.8 214.052 275.4C212.732 276 211.172 276.3 209.372 276.3ZM209.372 272.43C210.532 272.43 211.482 272.08 212.222 271.38C212.982 270.66 213.382 269.52 213.422 267.96C213.462 267.08 213.482 266.26 213.482 265.5C213.482 264.72 213.462 263.9 213.422 263.04C213.402 262 213.212 261.15 212.852 260.49C212.492 259.83 212.012 259.35 211.412 259.05C210.832 258.73 210.152 258.57 209.372 258.57C208.592 258.57 207.902 258.73 207.302 259.05C206.702 259.35 206.222 259.83 205.862 260.49C205.522 261.15 205.332 262 205.292 263.04C205.272 263.9 205.262 264.72 205.262 265.5C205.262 266.26 205.272 267.08 205.292 267.96C205.352 269.52 205.752 270.66 206.492 271.38C207.232 272.08 208.192 272.43 209.372 272.43ZM222.875 276C222.655 276 222.475 275.93 222.335 275.79C222.195 275.65 222.125 275.47 222.125 275.25V255.75C222.125 255.53 222.195 255.35 222.335 255.21C222.475 255.07 222.655 255 222.875 255H226.205C226.425 255 226.605 255.07 226.745 255.21C226.885 255.35 226.955 255.53 226.955 255.75V271.98H236.255C236.475 271.98 236.655 272.05 236.795 272.19C236.935 272.33 237.005 272.51 237.005 272.73V275.25C237.005 275.47 236.935 275.65 236.795 275.79C236.655 275.93 236.475 276 236.255 276H222.875ZM240.512 276C240.292 276 240.112 275.93 239.972 275.79C239.832 275.65 239.762 275.47 239.762 275.25V255.75C239.762 255.53 239.832 255.35 239.972 255.21C240.112 255.07 240.292 255 240.512 255H248.042C250.042 255 251.712 255.32 253.052 255.96C254.392 256.58 255.412 257.5 256.112 258.72C256.832 259.92 257.212 261.41 257.252 263.19C257.272 264.07 257.282 264.84 257.282 265.5C257.282 266.16 257.272 266.92 257.252 267.78C257.192 269.64 256.822 271.18 256.142 272.4C255.462 273.62 254.462 274.53 253.142 275.13C251.822 275.71 250.172 276 248.192 276H240.512ZM244.532 272.13H248.042C249.042 272.13 249.862 271.98 250.502 271.68C251.142 271.38 251.612 270.91 251.912 270.27C252.232 269.61 252.402 268.76 252.422 267.72C252.442 267.14 252.452 266.62 252.452 266.16C252.472 265.7 252.472 265.24 252.452 264.78C252.452 264.32 252.442 263.81 252.422 263.25C252.382 261.75 251.992 260.65 251.252 259.95C250.532 259.23 249.412 258.87 247.892 258.87H244.532V272.13ZM261.782 276C261.562 276 261.382 275.93 261.242 275.79C261.102 275.65 261.032 275.47 261.032 275.25V255.75C261.032 255.53 261.102 255.35 261.242 255.21C261.382 255.07 261.562 255 261.782 255H265.172C265.392 255 265.572 255.07 265.712 255.21C265.852 255.35 265.922 255.53 265.922 255.75V275.25C265.922 275.47 265.852 275.65 265.712 275.79C265.572 275.93 265.392 276 265.172 276H261.782ZM278.688 276.3C276.868 276.3 275.298 276 273.978 275.4C272.658 274.8 271.628 273.9 270.888 272.7C270.148 271.48 269.748 269.95 269.688 268.11C269.668 267.25 269.658 266.4 269.658 265.56C269.658 264.7 269.668 263.83 269.688 262.95C269.748 261.15 270.148 259.64 270.888 258.42C271.648 257.18 272.688 256.25 274.008 255.63C275.348 255.01 276.908 254.7 278.688 254.7C280.448 254.7 281.988 255.01 283.308 255.63C284.648 256.25 285.698 257.18 286.458 258.42C287.218 259.64 287.618 261.15 287.658 262.95C287.698 263.83 287.718 264.7 287.718 265.56C287.718 266.4 287.698 267.25 287.658 268.11C287.598 269.95 287.198 271.48 286.458 272.7C285.718 273.9 284.688 274.8 283.368 275.4C282.048 276 280.488 276.3 278.688 276.3ZM278.688 272.43C279.848 272.43 280.798 272.08 281.538 271.38C282.298 270.66 282.698 269.52 282.738 267.96C282.778 267.08 282.798 266.26 282.798 265.5C282.798 264.72 282.778 263.9 282.738 263.04C282.718 262 282.528 261.15 282.168 260.49C281.808 259.83 281.328 259.35 280.728 259.05C280.148 258.73 279.468 258.57 278.688 258.57C277.908 258.57 277.218 258.73 276.618 259.05C276.018 259.35 275.538 259.83 275.178 260.49C274.838 261.15 274.648 262 274.608 263.04C274.588 263.9 274.578 264.72 274.578 265.5C274.578 266.26 274.588 267.08 274.608 267.96C274.668 269.52 275.068 270.66 275.808 271.38C276.548 272.08 277.508 272.43 278.688 272.43ZM96.4385 312V301.32C96.4385 300.36 96.1785 299.67 95.6585 299.25C95.1385 298.83 94.3385 298.62 93.2585 298.62C92.2185 298.62 91.1985 298.78 90.1985 299.1C89.2185 299.4 88.3685 299.76 87.6485 300.18V296.46C88.2285 296.18 89.0485 295.9 90.1085 295.62C91.1685 295.32 92.3885 295.17 93.7685 295.17C94.8285 295.17 95.7785 295.3 96.6185 295.56C97.4785 295.82 98.0985 296.33 98.4785 297.09C99.3185 297.35 99.9185 297.86 100.279 298.62C100.659 299.36 100.849 300.32 100.849 301.5V312H96.4385ZM91.5185 312.3C89.7985 312.3 88.4685 311.89 87.5285 311.07C86.6085 310.25 86.1485 309.1 86.1485 307.62C86.1485 306.02 86.7185 304.74 87.8585 303.78C89.0185 302.82 90.8385 302.24 93.3185 302.04L97.1585 301.74V304.98L93.8285 305.31C92.6285 305.43 91.7885 305.67 91.3085 306.03C90.8485 306.39 90.6185 306.87 90.6185 307.47C90.6185 308.07 90.8085 308.52 91.1885 308.82C91.5885 309.12 92.0985 309.27 92.7185 309.27C92.9585 309.27 93.1985 309.25 93.4385 309.21C93.6785 309.15 93.8985 309.09 94.0985 309.03L94.4885 311.85C94.1085 311.99 93.6585 312.1 93.1385 312.18C92.6185 312.26 92.0785 312.3 91.5185 312.3ZM98.3885 298.83L95.9285 296.76C96.6285 296.52 97.1785 296.22 97.5785 295.86C97.9785 295.48 98.1885 295.02 98.2085 294.48H102.139C102.139 295.1 102.009 295.7 101.749 296.28C101.509 296.84 101.109 297.34 100.549 297.78C100.009 298.22 99.2885 298.57 98.3885 298.83ZM97.8005 293.94C96.6605 293.94 95.7505 293.68 95.0705 293.16C94.3905 292.64 94.0505 291.91 94.0505 290.97C94.0505 290.03 94.3905 289.3 95.0705 288.78C95.7505 288.26 96.6605 288 97.8005 288C98.9405 288 99.8605 288.26 100.56 288.78C101.24 289.3 101.58 290.03 101.58 290.97C101.58 291.91 101.24 292.64 100.56 293.16C99.8605 293.68 98.9405 293.94 97.8005 293.94ZM97.8005 292.2C98.2405 292.2 98.5805 292.09 98.8205 291.87C99.0605 291.65 99.1805 291.35 99.1805 290.97C99.1805 290.59 99.0605 290.29 98.8205 290.07C98.5805 289.85 98.2405 289.74 97.8005 289.74C97.3805 289.74 97.0505 289.85 96.8105 290.07C96.5705 290.29 96.4505 290.59 96.4505 290.97C96.4505 291.35 96.5705 291.65 96.8105 291.87C97.0505 292.09 97.3805 292.2 97.8005 292.2ZM109.475 312V301.14C109.475 300.3 109.275 299.69 108.875 299.31C108.495 298.93 107.865 298.74 106.985 298.74C106.325 298.74 105.715 298.83 105.155 299.01C104.615 299.19 104.105 299.41 103.625 299.67V296.07C104.065 295.87 104.685 295.67 105.485 295.47C106.285 295.27 107.225 295.17 108.305 295.17C109.405 295.17 110.375 295.33 111.215 295.65C112.075 295.97 112.745 296.51 113.225 297.27C113.725 298.01 113.975 299.03 113.975 300.33V312H109.475ZM123.772 312.3C122.553 312.3 121.523 312.07 120.683 311.61C119.863 311.13 119.233 310.42 118.793 309.48C118.373 308.54 118.163 307.39 118.163 306.03V295.56H122.663V305.25C122.663 306.35 122.883 307.15 123.323 307.65C123.763 308.15 124.403 308.4 125.243 308.4C126.303 308.4 127.123 308 127.703 307.2C128.283 306.38 128.573 305.12 128.573 303.42V295.56H133.073V312H129.653L129.173 309.48H128.903C128.563 310.28 127.973 310.95 127.133 311.49C126.313 312.03 125.193 312.3 123.772 312.3ZM128.707 293.28C127.767 293.28 127.027 293.14 126.487 292.86C125.947 292.58 125.567 292.23 125.347 291.81C125.107 291.37 124.987 290.91 124.987 290.43C124.987 290.09 125.037 289.73 125.137 289.35C125.237 288.95 125.387 288.58 125.587 288.24L128.857 288.66C128.817 288.8 128.787 288.95 128.767 289.11C128.727 289.25 128.707 289.38 128.707 289.5C128.707 289.78 128.797 290 128.977 290.16C129.137 290.3 129.417 290.37 129.817 290.37H136.267V293.28H128.707ZM137.407 312V306.99C137.407 305.73 137.657 304.76 138.157 304.08C138.657 303.4 139.367 302.92 140.287 302.64L140.317 302.52L137.107 301.35V300.57C137.107 299.59 137.397 298.69 137.977 297.87C138.557 297.05 139.407 296.4 140.527 295.92C141.667 295.42 143.047 295.17 144.667 295.17C146.187 295.17 147.497 295.41 148.597 295.89C149.697 296.35 150.547 297.05 151.147 297.99C151.767 298.91 152.077 300.08 152.077 301.5V312H147.577V301.77C147.577 300.77 147.307 300.02 146.767 299.52C146.247 299.02 145.507 298.77 144.547 298.77C143.627 298.77 142.937 298.97 142.477 299.37C142.017 299.75 141.767 300.22 141.727 300.78L144.397 302.01L144.067 303.96C143.347 304 142.807 304.26 142.447 304.74C142.087 305.22 141.907 305.87 141.907 306.69V312H137.407ZM160.898 312.3C159.998 312.3 159.238 312.16 158.618 311.88C157.998 311.6 157.528 311.18 157.208 310.62C156.888 310.04 156.728 309.32 156.728 308.46V295.56H161.228V307.92C161.228 308.3 161.308 308.58 161.468 308.76C161.648 308.94 161.918 309.03 162.278 309.03C162.438 309.03 162.608 309.01 162.788 308.97C162.968 308.93 163.138 308.88 163.298 308.82L163.718 311.7C163.338 311.9 162.908 312.05 162.428 312.15C161.948 312.25 161.438 312.3 160.898 312.3ZM169.928 312.3C169.028 312.3 168.268 312.16 167.648 311.88C167.028 311.6 166.558 311.18 166.238 310.62C165.918 310.04 165.758 309.32 165.758 308.46V295.56H170.258V307.92C170.258 308.3 170.338 308.58 170.498 308.76C170.678 308.94 170.948 309.03 171.308 309.03C171.468 309.03 171.638 309.01 171.818 308.97C171.998 308.93 172.168 308.88 172.328 308.82L172.748 311.7C172.368 311.9 171.938 312.05 171.458 312.15C170.978 312.25 170.468 312.3 169.928 312.3ZM175.796 312V295.56H180.236V301.71H180.356L185.456 295.56H190.406V295.71L180.236 306.99V312H175.796ZM185.846 312V306.57C185.846 305.51 185.536 304.75 184.916 304.29C184.316 303.81 183.436 303.57 182.276 303.57L184.916 300.45C186.116 300.45 187.116 300.69 187.916 301.17C188.716 301.65 189.316 302.3 189.716 303.12C190.136 303.92 190.346 304.84 190.346 305.88V312H185.846ZM185.164 293.28V286.47H189.304V293.28H185.164ZM197.008 312L192.238 295.56H196.768L200.398 308.37H200.578C200.898 308.37 201.198 308.28 201.478 308.1C201.758 307.92 201.998 307.68 202.198 307.38C202.598 306.82 202.898 306.16 203.098 305.4C203.298 304.62 203.398 303.85 203.398 303.09C203.398 301.75 203.138 300.72 202.618 300C202.118 299.28 201.418 298.92 200.518 298.92C200.338 298.92 200.168 298.93 200.008 298.95C199.868 298.97 199.738 299.01 199.618 299.07L198.778 295.62C199.238 295.48 199.668 295.4 200.068 295.38C200.488 295.34 200.828 295.32 201.088 295.32C202.148 295.32 203.068 295.46 203.848 295.74C204.628 296.02 205.298 296.44 205.858 297C206.558 297.68 207.078 298.53 207.418 299.55C207.778 300.57 207.958 301.72 207.958 303C207.958 304.62 207.698 306.04 207.178 307.26C206.678 308.46 206.068 309.41 205.348 310.11C204.748 310.69 203.988 311.15 203.068 311.49C202.168 311.83 200.928 312 199.348 312H197.008ZM211.177 312V306.99C211.177 305.73 211.427 304.76 211.927 304.08C212.427 303.4 213.137 302.92 214.057 302.64L214.087 302.52L210.877 301.35V300.57C210.877 299.59 211.167 298.69 211.747 297.87C212.327 297.05 213.177 296.4 214.297 295.92C215.437 295.42 216.817 295.17 218.437 295.17C219.957 295.17 221.267 295.41 222.367 295.89C223.467 296.35 224.317 297.05 224.917 297.99C225.537 298.91 225.847 300.08 225.847 301.5V312H221.347V301.77C221.347 300.77 221.077 300.02 220.537 299.52C220.017 299.02 219.277 298.77 218.317 298.77C217.397 298.77 216.707 298.97 216.247 299.37C215.787 299.75 215.537 300.22 215.497 300.78L218.167 302.01L217.837 303.96C217.117 304 216.577 304.26 216.217 304.74C215.857 305.22 215.677 305.87 215.677 306.69V312H211.177ZM234.397 312V301.14C234.397 300.3 234.197 299.69 233.797 299.31C233.417 298.93 232.787 298.74 231.907 298.74C231.247 298.74 230.637 298.83 230.077 299.01C229.537 299.19 229.027 299.41 228.547 299.67V296.07C228.987 295.87 229.607 295.67 230.407 295.47C231.207 295.27 232.147 295.17 233.227 295.17C234.327 295.17 235.297 295.33 236.137 295.65C236.997 295.97 237.667 296.51 238.147 297.27C238.647 298.01 238.897 299.03 238.897 300.33V312H234.397ZM248.724 312.39C247.544 312.39 246.354 312.26 245.154 312C243.974 311.74 242.924 311.37 242.004 310.89L243.264 307.32C243.664 307.54 244.144 307.77 244.704 308.01C245.264 308.25 245.874 308.45 246.534 308.61C247.194 308.77 247.864 308.85 248.544 308.85C249.344 308.85 249.944 308.74 250.344 308.52C250.764 308.28 250.974 307.92 250.974 307.44C250.974 307.08 250.834 306.79 250.554 306.57C250.294 306.33 249.904 306.11 249.384 305.91C248.864 305.69 248.244 305.46 247.524 305.22C246.464 304.84 245.554 304.43 244.794 303.99C244.034 303.55 243.444 303.01 243.024 302.37C242.624 301.73 242.424 300.93 242.424 299.97C242.424 298.87 242.704 297.97 243.264 297.27C243.824 296.57 244.614 296.05 245.634 295.71C246.654 295.35 247.844 295.17 249.204 295.17C250.324 295.17 251.334 295.26 252.234 295.44C253.134 295.62 253.834 295.85 254.334 296.13V299.67C253.994 299.51 253.544 299.35 252.984 299.19C252.444 299.03 251.854 298.9 251.214 298.8C250.594 298.68 249.994 298.62 249.414 298.62C248.594 298.62 247.974 298.73 247.554 298.95C247.134 299.17 246.924 299.48 246.924 299.88C246.924 300.2 247.064 300.47 247.344 300.69C247.644 300.91 248.074 301.12 248.634 301.32C249.194 301.5 249.864 301.73 250.644 302.01C251.684 302.37 252.564 302.77 253.284 303.21C254.004 303.65 254.544 304.19 254.904 304.83C255.284 305.47 255.474 306.26 255.474 307.2C255.474 308.1 255.264 308.95 254.844 309.75C254.444 310.53 253.754 311.17 252.774 311.67C251.794 312.15 250.444 312.39 248.724 312.39ZM258.612 312V302.25C258.612 299.95 259.222 298.2 260.442 297C261.662 295.78 263.592 295.17 266.232 295.17C268.892 295.17 270.812 295.78 271.992 297C273.192 298.2 273.792 299.95 273.792 302.25V312H269.322V302.19C269.322 301.13 269.072 300.3 268.572 299.7C268.092 299.08 267.292 298.77 266.172 298.77C265.072 298.77 264.272 299.08 263.772 299.7C263.292 300.3 263.052 301.13 263.052 302.19V304.8L263.142 304.83C263.522 304.05 263.972 303.54 264.492 303.3C265.032 303.04 265.762 302.91 266.682 302.91H267.372V306.27H266.682C265.682 306.27 264.922 306.44 264.402 306.78C263.882 307.12 263.522 307.57 263.322 308.13C263.142 308.67 263.052 309.28 263.052 309.96V312H258.612ZM268.951 293.28C268.011 293.28 267.271 293.14 266.731 292.86C266.191 292.58 265.811 292.23 265.591 291.81C265.351 291.37 265.231 290.91 265.231 290.43C265.231 290.09 265.281 289.73 265.381 289.35C265.481 288.95 265.631 288.58 265.831 288.24L269.101 288.66C269.061 288.8 269.031 288.95 269.011 289.11C268.971 289.25 268.951 289.38 268.951 289.5C268.951 289.78 269.041 290 269.221 290.16C269.381 290.3 269.661 290.37 270.061 290.37H276.511V293.28H268.951ZM283.916 312.3C282.296 312.3 281.006 311.95 280.046 311.25C279.086 310.53 278.396 309.55 277.976 308.31C277.556 307.05 277.346 305.61 277.346 303.99C277.346 302.25 277.536 300.81 277.916 299.67C278.316 298.51 278.876 297.61 279.596 296.97C280.316 296.31 281.166 295.85 282.146 295.59C283.146 295.31 284.236 295.17 285.416 295.17C287.216 295.17 288.656 295.42 289.736 295.92C290.816 296.42 291.596 297.13 292.076 298.05C292.576 298.97 292.826 300.05 292.826 301.29V312H288.326V301.65C288.326 300.71 288.096 300 287.636 299.52C287.196 299.02 286.456 298.77 285.416 298.77C284.716 298.77 284.096 298.92 283.556 299.22C283.036 299.5 282.626 300.01 282.326 300.75C282.046 301.49 281.906 302.55 281.906 303.93C281.906 304.87 281.996 305.7 282.176 306.42C282.356 307.14 282.646 307.7 283.046 308.1C283.466 308.5 284.026 308.7 284.726 308.7C284.946 308.7 285.156 308.69 285.356 308.67C285.576 308.63 285.766 308.59 285.926 308.55L286.346 311.91C286.026 312.05 285.636 312.15 285.176 312.21C284.736 312.27 284.316 312.3 283.916 312.3ZM306.38 312V301.32C306.38 300.36 306.12 299.67 305.6 299.25C305.08 298.83 304.28 298.62 303.2 298.62C302.16 298.62 301.14 298.78 300.14 299.1C299.16 299.4 298.31 299.76 297.59 300.18V296.46C298.17 296.18 298.99 295.9 300.05 295.62C301.11 295.32 302.33 295.17 303.71 295.17C304.77 295.17 305.72 295.3 306.56 295.56C307.42 295.82 308.04 296.33 308.42 297.09C309.26 297.35 309.86 297.86 310.22 298.62C310.6 299.36 310.79 300.32 310.79 301.5V312H306.38ZM301.46 312.3C299.74 312.3 298.41 311.89 297.47 311.07C296.55 310.25 296.09 309.1 296.09 307.62C296.09 306.02 296.66 304.74 297.8 303.78C298.96 302.82 300.78 302.24 303.26 302.04L307.1 301.74V304.98L303.77 305.31C302.57 305.43 301.73 305.67 301.25 306.03C300.79 306.39 300.56 306.87 300.56 307.47C300.56 308.07 300.75 308.52 301.13 308.82C301.53 309.12 302.04 309.27 302.66 309.27C302.9 309.27 303.14 309.25 303.38 309.21C303.62 309.15 303.84 309.09 304.04 309.03L304.43 311.85C304.05 311.99 303.6 312.1 303.08 312.18C302.56 312.26 302.02 312.3 301.46 312.3ZM308.33 298.83L305.87 296.76C306.57 296.52 307.12 296.22 307.52 295.86C307.92 295.48 308.13 295.02 308.15 294.48H312.08C312.08 295.1 311.95 295.7 311.69 296.28C311.45 296.84 311.05 297.34 310.49 297.78C309.95 298.22 309.23 298.57 308.33 298.83ZM320.707 312.39C319.527 312.39 318.337 312.26 317.137 312C315.957 311.74 314.907 311.37 313.987 310.89L315.247 307.32C315.647 307.54 316.127 307.77 316.687 308.01C317.247 308.25 317.857 308.45 318.517 308.61C319.177 308.77 319.847 308.85 320.527 308.85C321.327 308.85 321.927 308.74 322.327 308.52C322.747 308.28 322.957 307.92 322.957 307.44C322.957 307.08 322.817 306.79 322.537 306.57C322.277 306.33 321.887 306.11 321.367 305.91C320.847 305.69 320.227 305.46 319.507 305.22C318.447 304.84 317.537 304.43 316.777 303.99C316.017 303.55 315.427 303.01 315.007 302.37C314.607 301.73 314.407 300.93 314.407 299.97C314.407 298.87 314.687 297.97 315.247 297.27C315.807 296.57 316.597 296.05 317.617 295.71C318.637 295.35 319.827 295.17 321.187 295.17C322.307 295.17 323.317 295.26 324.217 295.44C325.117 295.62 325.817 295.85 326.317 296.13V299.67C325.977 299.51 325.527 299.35 324.967 299.19C324.427 299.03 323.837 298.9 323.197 298.8C322.577 298.68 321.977 298.62 321.397 298.62C320.577 298.62 319.957 298.73 319.537 298.95C319.117 299.17 318.907 299.48 318.907 299.88C318.907 300.2 319.047 300.47 319.327 300.69C319.627 300.91 320.057 301.12 320.617 301.32C321.177 301.5 321.847 301.73 322.627 302.01C323.667 302.37 324.547 302.77 325.267 303.21C325.987 303.65 326.527 304.19 326.887 304.83C327.267 305.47 327.457 306.26 327.457 307.2C327.457 308.1 327.247 308.95 326.827 309.75C326.427 310.53 325.737 311.17 324.757 311.67C323.777 312.15 322.427 312.39 320.707 312.39ZM336.234 312.39C335.054 312.39 333.864 312.26 332.664 312C331.484 311.74 330.434 311.37 329.514 310.89L330.774 307.32C331.174 307.54 331.654 307.77 332.214 308.01C332.774 308.25 333.384 308.45 334.044 308.61C334.704 308.77 335.374 308.85 336.054 308.85C336.854 308.85 337.454 308.74 337.854 308.52C338.274 308.28 338.484 307.92 338.484 307.44C338.484 307.08 338.344 306.79 338.064 306.57C337.804 306.33 337.414 306.11 336.894 305.91C336.374 305.69 335.754 305.46 335.034 305.22C333.974 304.84 333.064 304.43 332.304 303.99C331.544 303.55 330.954 303.01 330.534 302.37C330.134 301.73 329.934 300.93 329.934 299.97C329.934 298.87 330.214 297.97 330.774 297.27C331.334 296.57 332.124 296.05 333.144 295.71C334.164 295.35 335.354 295.17 336.714 295.17C337.834 295.17 338.844 295.26 339.744 295.44C340.644 295.62 341.344 295.85 341.844 296.13V299.67C341.504 299.51 341.054 299.35 340.494 299.19C339.954 299.03 339.364 298.9 338.724 298.8C338.104 298.68 337.504 298.62 336.924 298.62C336.104 298.62 335.484 298.73 335.064 298.95C334.644 299.17 334.434 299.48 334.434 299.88C334.434 300.2 334.574 300.47 334.854 300.69C335.154 300.91 335.584 301.12 336.144 301.32C336.704 301.5 337.374 301.73 338.154 302.01C339.194 302.37 340.074 302.77 340.794 303.21C341.514 303.65 342.054 304.19 342.414 304.83C342.794 305.47 342.984 306.26 342.984 307.2C342.984 308.1 342.774 308.95 342.354 309.75C341.954 310.53 341.264 311.17 340.284 311.67C339.304 312.15 337.954 312.39 336.234 312.39ZM111.922 348V338.25C111.922 335.95 112.532 334.2 113.752 333C114.972 331.78 116.902 331.17 119.542 331.17C122.202 331.17 124.122 331.78 125.302 333C126.502 334.2 127.102 335.95 127.102 338.25V348H122.632V338.19C122.632 337.13 122.382 336.3 121.882 335.7C121.402 335.08 120.602 334.77 119.482 334.77C118.382 334.77 117.582 335.08 117.082 335.7C116.602 336.3 116.362 337.13 116.362 338.19V340.8L116.452 340.83C116.832 340.05 117.282 339.54 117.802 339.3C118.342 339.04 119.072 338.91 119.992 338.91H120.682V342.27H119.992C118.992 342.27 118.232 342.44 117.712 342.78C117.192 343.12 116.832 343.57 116.632 344.13C116.452 344.67 116.362 345.28 116.362 345.96V348H111.922ZM137.857 348.39C135.417 348.39 133.607 347.8 132.427 346.62C131.247 345.42 130.657 343.65 130.657 341.31C130.657 340.91 130.667 340.43 130.687 339.87C130.727 339.29 130.777 338.78 130.837 338.34H138.037V341.19H135.067V341.61C135.067 342.41 135.167 343.07 135.367 343.59C135.567 344.09 135.867 344.46 136.267 344.7C136.687 344.94 137.207 345.06 137.827 345.06C138.507 345.06 139.077 344.91 139.537 344.61C140.017 344.31 140.377 343.8 140.617 343.08C140.877 342.36 141.007 341.37 141.007 340.11C141.007 338.93 140.867 337.95 140.587 337.17C140.327 336.37 139.877 335.77 139.237 335.37C138.617 334.97 137.757 334.77 136.657 334.77C136.057 334.77 135.437 334.84 134.797 334.98C134.157 335.1 133.547 335.26 132.967 335.46C132.407 335.66 131.917 335.88 131.497 336.12V332.37C131.937 332.13 132.477 331.92 133.117 331.74C133.777 331.56 134.487 331.42 135.247 331.32C136.007 331.22 136.757 331.17 137.497 331.17C139.437 331.17 140.997 331.53 142.177 332.25C143.377 332.95 144.247 333.95 144.787 335.25C145.347 336.55 145.627 338.09 145.627 339.87C145.627 341.69 145.357 343.24 144.817 344.52C144.297 345.78 143.467 346.74 142.327 347.4C141.187 348.06 139.697 348.39 137.857 348.39ZM154.74 348.39C153.56 348.39 152.37 348.26 151.17 348C149.99 347.74 148.94 347.37 148.02 346.89L149.28 343.32C149.68 343.54 150.16 343.77 150.72 344.01C151.28 344.25 151.89 344.45 152.55 344.61C153.21 344.77 153.88 344.85 154.56 344.85C155.36 344.85 155.96 344.74 156.36 344.52C156.78 344.28 156.99 343.92 156.99 343.44C156.99 343.08 156.85 342.79 156.57 342.57C156.31 342.33 155.92 342.11 155.4 341.91C154.88 341.69 154.26 341.46 153.54 341.22C152.48 340.84 151.57 340.43 150.81 339.99C150.05 339.55 149.46 339.01 149.04 338.37C148.64 337.73 148.44 336.93 148.44 335.97C148.44 334.87 148.72 333.97 149.28 333.27C149.84 332.57 150.63 332.05 151.65 331.71C152.67 331.35 153.86 331.17 155.22 331.17C156.34 331.17 157.35 331.26 158.25 331.44C159.15 331.62 159.85 331.85 160.35 332.13V335.67C160.01 335.51 159.56 335.35 159 335.19C158.46 335.03 157.87 334.9 157.23 334.8C156.61 334.68 156.01 334.62 155.43 334.62C154.61 334.62 153.99 334.73 153.57 334.95C153.15 335.17 152.94 335.48 152.94 335.88C152.94 336.2 153.08 336.47 153.36 336.69C153.66 336.91 154.09 337.12 154.65 337.32C155.21 337.5 155.88 337.73 156.66 338.01C157.7 338.37 158.58 338.77 159.3 339.21C160.02 339.65 160.56 340.19 160.92 340.83C161.3 341.47 161.49 342.26 161.49 343.2C161.49 344.1 161.28 344.95 160.86 345.75C160.46 346.53 159.77 347.17 158.79 347.67C157.81 348.15 156.46 348.39 154.74 348.39ZM154.929 329.94C154.769 329.66 154.639 329.3 154.539 328.86C154.419 328.42 154.359 327.98 154.359 327.54C154.359 326.98 154.469 326.47 154.689 326.01C154.889 325.55 155.259 325.19 155.799 324.93C156.319 324.65 157.039 324.51 157.959 324.51H162.309V327.54H159.429C159.049 327.54 158.759 327.61 158.559 327.75C158.339 327.87 158.229 328.1 158.229 328.44C158.229 328.58 158.249 328.73 158.289 328.89C158.329 329.03 158.389 329.18 158.469 329.34L154.929 329.94ZM173.987 348V337.32C173.987 336.36 173.727 335.67 173.207 335.25C172.687 334.83 171.887 334.62 170.807 334.62C169.767 334.62 168.747 334.78 167.747 335.1C166.767 335.4 165.917 335.76 165.197 336.18V332.46C165.777 332.18 166.597 331.9 167.657 331.62C168.717 331.32 169.937 331.17 171.317 331.17C172.377 331.17 173.327 331.3 174.167 331.56C175.027 331.82 175.647 332.33 176.027 333.09C176.867 333.35 177.467 333.86 177.827 334.62C178.207 335.36 178.397 336.32 178.397 337.5V348H173.987ZM169.067 348.3C167.347 348.3 166.017 347.89 165.077 347.07C164.157 346.25 163.697 345.1 163.697 343.62C163.697 342.02 164.267 340.74 165.407 339.78C166.567 338.82 168.387 338.24 170.867 338.04L174.707 337.74V340.98L171.377 341.31C170.177 341.43 169.337 341.67 168.857 342.03C168.397 342.39 168.167 342.87 168.167 343.47C168.167 344.07 168.357 344.52 168.737 344.82C169.137 345.12 169.647 345.27 170.267 345.27C170.507 345.27 170.747 345.25 170.987 345.21C171.227 345.15 171.447 345.09 171.647 345.03L172.037 347.85C171.657 347.99 171.207 348.1 170.687 348.18C170.167 348.26 169.627 348.3 169.067 348.3ZM175.937 334.83L173.477 332.76C174.177 332.52 174.727 332.22 175.127 331.86C175.527 331.48 175.737 331.02 175.757 330.48H179.687C179.687 331.1 179.557 331.7 179.297 332.28C179.057 332.84 178.657 333.34 178.097 333.78C177.557 334.22 176.837 334.57 175.937 334.83ZM187.294 348.3C186.394 348.3 185.634 348.16 185.014 347.88C184.394 347.6 183.924 347.18 183.604 346.62C183.284 346.04 183.124 345.32 183.124 344.46V333.36C183.124 332.84 183.154 332.41 183.214 332.07C183.294 331.73 183.434 331.41 183.634 331.11C183.834 330.79 184.124 330.41 184.504 329.97C184.904 329.51 185.234 329.11 185.494 328.77C185.754 328.43 185.884 328.04 185.884 327.6C185.884 327.14 185.714 326.78 185.374 326.52C185.054 326.24 184.544 326.1 183.844 326.1C183.304 326.1 182.824 326.17 182.404 326.31C181.984 326.45 181.604 326.63 181.264 326.85V323.52C181.544 323.36 182.044 323.18 182.764 322.98C183.504 322.76 184.394 322.65 185.434 322.65C187.014 322.65 188.264 322.98 189.184 323.64C190.104 324.3 190.564 325.29 190.564 326.61C190.564 327.41 190.404 328.11 190.084 328.71C189.784 329.31 189.464 329.84 189.124 330.3C188.804 330.74 188.524 331.11 188.284 331.41C188.064 331.69 187.894 331.98 187.774 332.28C187.674 332.58 187.624 332.98 187.624 333.48V343.92C187.624 344.3 187.704 344.58 187.864 344.76C188.044 344.94 188.304 345.03 188.644 345.03C188.804 345.03 188.974 345.01 189.154 344.97C189.354 344.93 189.534 344.88 189.694 344.82L190.114 347.7C189.734 347.9 189.304 348.05 188.824 348.15C188.344 348.25 187.834 348.3 187.294 348.3ZM193.081 348V331.56H197.521V337.71H197.641L202.741 331.56H207.691V331.71L197.521 342.99V348H193.081ZM203.131 348V342.57C203.131 341.51 202.821 340.75 202.201 340.29C201.601 339.81 200.721 339.57 199.561 339.57L202.201 336.45C203.401 336.45 204.401 336.69 205.201 337.17C206.001 337.65 206.601 338.3 207.001 339.12C207.421 339.92 207.631 340.84 207.631 341.88V348H203.131ZM197.709 329.31V327.81C197.989 327.73 198.299 327.62 198.639 327.48C198.979 327.34 199.279 327.15 199.539 326.91C199.799 326.67 199.929 326.37 199.929 326.01C199.929 325.73 199.849 325.51 199.689 325.35C199.529 325.19 199.329 325.11 199.089 325.11C198.929 325.11 198.759 325.14 198.579 325.2C198.399 325.26 198.239 325.32 198.099 325.38L197.529 323.37C197.929 323.03 198.429 322.81 199.029 322.71C199.609 322.59 200.099 322.53 200.499 322.53C201.399 322.53 202.109 322.74 202.629 323.16C203.129 323.58 203.379 324.2 203.379 325.02C203.379 325.46 203.269 325.87 203.049 326.25C202.809 326.63 202.449 326.94 201.969 327.18L201.849 326.4H207.519V329.31H197.709ZM216.093 348.3C215.193 348.3 214.433 348.16 213.813 347.88C213.193 347.6 212.723 347.18 212.403 346.62C212.083 346.04 211.923 345.32 211.923 344.46V331.56H216.423V343.92C216.423 344.3 216.503 344.58 216.663 344.76C216.843 344.94 217.113 345.03 217.473 345.03C217.633 345.03 217.803 345.01 217.983 344.97C218.163 344.93 218.333 344.88 218.493 344.82L218.913 347.7C218.533 347.9 218.103 348.05 217.623 348.15C217.143 348.25 216.633 348.3 216.093 348.3ZM221.968 348V331.56H226.408V337.71H226.528L231.628 331.56H236.578V331.71L226.408 342.99V348H221.968ZM232.018 348V342.57C232.018 341.51 231.708 340.75 231.088 340.29C230.488 339.81 229.608 339.57 228.448 339.57L231.088 336.45C232.288 336.45 233.288 336.69 234.088 337.17C234.888 337.65 235.488 338.3 235.888 339.12C236.308 339.92 236.518 340.84 236.518 341.88V348H232.018ZM250.05 348.3C248.63 348.3 247.48 348.03 246.6 347.49C245.74 346.95 245.13 346.26 244.77 345.42H244.53L244.05 348H240.63V331.56H245.13V339.42C245.13 340.56 245.26 341.5 245.52 342.24C245.78 342.96 246.16 343.5 246.66 343.86C247.16 344.22 247.76 344.4 248.46 344.4C249.3 344.4 249.94 344.15 250.38 343.65C250.82 343.15 251.04 342.35 251.04 341.25V331.56H255.54V342.24C255.54 343.54 255.33 344.64 254.91 345.54C254.51 346.44 253.9 347.13 253.08 347.61C252.26 348.07 251.25 348.3 250.05 348.3ZM264.104 348V337.14C264.104 336.3 263.904 335.69 263.504 335.31C263.124 334.93 262.494 334.74 261.614 334.74C260.954 334.74 260.344 334.83 259.784 335.01C259.244 335.19 258.734 335.41 258.254 335.67V332.07C258.694 331.87 259.314 331.67 260.114 331.47C260.914 331.27 261.854 331.17 262.934 331.17C264.034 331.17 265.004 331.33 265.844 331.65C266.704 331.97 267.374 332.51 267.854 333.27C268.354 334.01 268.604 335.03 268.604 336.33V348H264.104ZM275.611 338.31C274.691 338.31 273.961 338.17 273.421 337.89C272.881 337.61 272.491 337.24 272.251 336.78C272.011 336.3 271.891 335.8 271.891 335.28C271.891 334.94 271.941 334.59 272.041 334.23C272.141 333.85 272.291 333.48 272.491 333.12L275.761 333.54C275.721 333.68 275.681 333.83 275.641 333.99C275.621 334.15 275.611 334.32 275.611 334.5C275.611 334.76 275.691 334.97 275.851 335.13C276.011 335.27 276.291 335.34 276.691 335.34H280.081V338.31H275.611ZM275.611 346.71C274.691 346.71 273.961 346.57 273.421 346.29C272.881 346.01 272.491 345.64 272.251 345.18C272.011 344.7 271.891 344.2 271.891 343.68C271.891 343.34 271.941 342.99 272.041 342.63C272.141 342.25 272.291 341.88 272.491 341.52L275.761 341.94C275.721 342.08 275.681 342.23 275.641 342.39C275.621 342.55 275.611 342.72 275.611 342.9C275.611 343.16 275.691 343.37 275.851 343.53C276.011 343.67 276.291 343.74 276.691 343.74H280.081V346.71H275.611ZM283.393 348V342.99C283.393 341.73 283.643 340.76 284.143 340.08C284.643 339.4 285.353 338.92 286.273 338.64L286.303 338.52L283.093 337.35V336.57C283.093 335.59 283.383 334.69 283.963 333.87C284.543 333.05 285.393 332.4 286.513 331.92C287.653 331.42 289.033 331.17 290.653 331.17C292.173 331.17 293.483 331.41 294.583 331.89C295.683 332.35 296.533 333.05 297.133 333.99C297.753 334.91 298.063 336.08 298.063 337.5V348H293.563V337.77C293.563 336.77 293.293 336.02 292.753 335.52C292.233 335.02 291.493 334.77 290.533 334.77C289.613 334.77 288.923 334.97 288.463 335.37C288.003 335.75 287.753 336.22 287.713 336.78L290.383 338.01L290.053 339.96C289.333 340 288.793 340.26 288.433 340.74C288.073 341.22 287.893 341.87 287.893 342.69V348H283.393ZM293.209 329.28C292.269 329.28 291.529 329.14 290.989 328.86C290.449 328.58 290.069 328.23 289.849 327.81C289.609 327.37 289.489 326.91 289.489 326.43C289.489 326.09 289.539 325.73 289.639 325.35C289.739 324.95 289.889 324.58 290.089 324.24L293.359 324.66C293.319 324.8 293.289 324.95 293.269 325.11C293.229 325.25 293.209 325.38 293.209 325.5C293.209 325.78 293.299 326 293.479 326.16C293.639 326.3 293.919 326.37 294.319 326.37H300.769V329.28H293.209ZM309.674 348.39C307.074 348.39 305.184 347.79 304.004 346.59C302.844 345.37 302.264 343.61 302.264 341.31V331.56H306.764V341.55C306.764 342.61 306.994 343.42 307.454 343.98C307.934 344.52 308.674 344.79 309.674 344.79C310.674 344.79 311.404 344.52 311.864 343.98C312.344 343.42 312.584 342.61 312.584 341.55V331.56H317.084V341.31C317.084 343.61 316.494 345.37 315.314 346.59C314.154 347.79 312.274 348.39 309.674 348.39ZM134.325 384.3C133.425 384.3 132.665 384.16 132.045 383.88C131.425 383.6 130.955 383.18 130.635 382.62C130.315 382.04 130.155 381.32 130.155 380.46V367.56H134.655V379.92C134.655 380.3 134.735 380.58 134.895 380.76C135.075 380.94 135.345 381.03 135.705 381.03C135.865 381.03 136.035 381.01 136.215 380.97C136.395 380.93 136.565 380.88 136.725 380.82L137.145 383.7C136.765 383.9 136.335 384.05 135.855 384.15C135.375 384.25 134.865 384.3 134.325 384.3ZM140.2 384V367.56H144.64V373.71H144.76L149.86 367.56H154.81V367.71L144.64 378.99V384H140.2ZM150.25 384V378.57C150.25 377.51 149.94 376.75 149.32 376.29C148.72 375.81 147.84 375.57 146.68 375.57L149.32 372.45C150.52 372.45 151.52 372.69 152.32 373.17C153.12 373.65 153.72 374.3 154.12 375.12C154.54 375.92 154.75 376.84 154.75 377.88V384H150.25ZM167.952 384V373.32C167.952 372.36 167.692 371.67 167.172 371.25C166.652 370.83 165.852 370.62 164.772 370.62C163.732 370.62 162.712 370.78 161.712 371.1C160.732 371.4 159.882 371.76 159.162 372.18V368.46C159.742 368.18 160.562 367.9 161.622 367.62C162.682 367.32 163.912 367.17 165.312 367.17C166.332 367.17 167.262 367.28 168.102 367.5C168.962 367.7 169.712 368.05 170.352 368.55C170.992 369.03 171.482 369.68 171.822 370.5C172.182 371.3 172.362 372.3 172.362 373.5V384H167.952ZM163.032 384.3C161.312 384.3 159.982 383.89 159.042 383.07C158.122 382.25 157.662 381.1 157.662 379.62C157.662 378.02 158.232 376.74 159.372 375.78C160.532 374.82 162.352 374.24 164.832 374.04L168.672 373.74V376.98L165.342 377.31C164.142 377.43 163.302 377.67 162.822 378.03C162.362 378.39 162.132 378.87 162.132 379.47C162.132 380.07 162.322 380.52 162.702 380.82C163.102 381.12 163.612 381.27 164.232 381.27C164.472 381.27 164.712 381.25 164.952 381.21C165.192 381.15 165.412 381.09 165.612 381.03L166.002 383.85C165.622 383.99 165.172 384.1 164.652 384.18C164.132 384.26 163.592 384.3 163.032 384.3ZM167.761 365.28V358.47H171.901V365.28H167.761ZM180.901 384V373.14C180.901 372.3 180.701 371.69 180.301 371.31C179.921 370.93 179.291 370.74 178.411 370.74C177.751 370.74 177.141 370.83 176.581 371.01C176.041 371.19 175.531 371.41 175.051 371.67V368.07C175.491 367.87 176.111 367.67 176.911 367.47C177.711 367.27 178.651 367.17 179.731 367.17C180.831 367.17 181.801 367.33 182.641 367.65C183.501 367.97 184.171 368.51 184.651 369.27C185.151 370.01 185.401 371.03 185.401 372.33V384H180.901ZM189.738 384V371.22C189.738 370.2 189.908 369.4 190.248 368.82C190.608 368.24 191.098 367.84 191.718 367.62C192.338 367.38 193.048 367.26 193.848 367.26C194.408 367.26 194.908 367.32 195.348 367.44C195.788 367.54 196.148 367.66 196.428 367.8L195.828 370.74C195.668 370.7 195.508 370.67 195.348 370.65C195.188 370.63 195.058 370.62 194.958 370.62C194.578 370.62 194.308 370.72 194.148 370.92C194.008 371.12 193.938 371.41 193.938 371.79V374.58C193.938 375.08 193.918 375.68 193.878 376.38C193.838 377.06 193.768 377.92 193.668 378.96H193.818C194.218 378.02 194.568 377.27 194.868 376.71C195.188 376.13 195.468 375.62 195.708 375.18L196.818 373.17H198.498L199.608 375.18C199.888 375.66 200.128 376.1 200.328 376.5C200.528 376.88 200.718 377.26 200.898 377.64C201.078 378.02 201.278 378.46 201.498 378.96H201.648C201.548 377.92 201.478 377.06 201.438 376.38C201.398 375.68 201.378 375.08 201.378 374.58V367.56H205.578V384H201.288L197.718 377.46H197.598L194.028 384H189.738ZM200.977 391.95C199.377 391.95 198.207 391.71 197.467 391.23C196.727 390.75 196.357 390.12 196.357 389.34V388.83C196.357 388.49 196.267 388.28 196.087 388.2C195.907 388.14 195.667 388.15 195.367 388.23L195.157 386.22C195.437 386.1 195.797 386.02 196.237 385.98C196.677 385.94 197.037 385.92 197.317 385.92C198.197 385.92 198.837 386.08 199.237 386.4C199.617 386.72 199.807 387.17 199.807 387.75V388.44C199.807 388.78 199.887 389.04 200.047 389.22C200.187 389.42 200.457 389.52 200.857 389.52C201.277 389.52 201.567 389.42 201.727 389.22C201.887 389.04 201.967 388.78 201.967 388.44V386.01H205.627V388.92C205.627 389.9 205.257 390.65 204.517 391.17C203.777 391.69 202.597 391.95 200.977 391.95ZM196.537 365.31V363.81C196.817 363.73 197.127 363.62 197.467 363.48C197.807 363.34 198.107 363.15 198.367 362.91C198.627 362.67 198.757 362.37 198.757 362.01C198.757 361.73 198.677 361.51 198.517 361.35C198.357 361.19 198.157 361.11 197.917 361.11C197.757 361.11 197.587 361.14 197.407 361.2C197.227 361.26 197.067 361.32 196.927 361.38L196.357 359.37C196.757 359.03 197.257 358.81 197.857 358.71C198.437 358.59 198.927 358.53 199.327 358.53C200.227 358.53 200.937 358.74 201.457 359.16C201.957 359.58 202.207 360.2 202.207 361.02C202.207 361.46 202.097 361.87 201.877 362.25C201.637 362.63 201.277 362.94 200.797 363.18L200.677 362.4H206.347V365.31H196.537ZM214.418 384.39C213.398 384.39 212.438 384.27 211.538 384.03C210.638 383.81 209.798 383.49 209.018 383.07L210.218 379.8C210.658 380.06 211.188 380.29 211.808 380.49C212.428 380.69 213.038 380.79 213.638 380.79C214.758 380.79 215.648 380.37 216.308 379.53C216.968 378.67 217.298 377.39 217.298 375.69C217.298 374.09 216.968 372.87 216.308 372.03C215.648 371.19 214.618 370.77 213.218 370.77C212.558 370.77 211.878 370.87 211.178 371.07C210.478 371.25 209.898 371.48 209.438 371.76V368.07C210.058 367.79 210.758 367.57 211.538 367.41C212.318 367.25 213.148 367.17 214.028 367.17C215.868 367.17 217.368 367.51 218.528 368.19C219.688 368.87 220.538 369.85 221.078 371.13C221.618 372.39 221.888 373.91 221.888 375.69C221.888 378.53 221.238 380.69 219.938 382.17C218.638 383.65 216.798 384.39 214.418 384.39ZM207.941 365.28V363.39L210.971 362.13H221.681V365.28H207.941ZM230.068 384.3C229.168 384.3 228.408 384.16 227.788 383.88C227.168 383.6 226.698 383.18 226.378 382.62C226.058 382.04 225.898 381.32 225.898 380.46V367.56H230.398V379.92C230.398 380.3 230.478 380.58 230.638 380.76C230.818 380.94 231.088 381.03 231.448 381.03C231.608 381.03 231.778 381.01 231.958 380.97C232.138 380.93 232.308 380.88 232.468 380.82L232.888 383.7C232.508 383.9 232.078 384.05 231.598 384.15C231.118 384.25 230.608 384.3 230.068 384.3ZM235.379 384V374.25C235.379 371.95 235.989 370.2 237.209 369C238.429 367.78 240.369 367.17 243.029 367.17C244.169 367.17 245.179 367.33 246.059 367.65C246.939 367.95 247.609 368.49 248.069 369.27C249.009 369.63 249.659 370.25 250.019 371.13C250.399 372.01 250.589 373.06 250.589 374.28V384H246.119V374.19C246.119 373.13 245.869 372.3 245.369 371.7C244.889 371.08 244.099 370.77 242.999 370.77C241.899 370.77 241.099 371.08 240.599 371.7C240.099 372.3 239.849 373.13 239.849 374.19V376.8L239.939 376.83C240.339 376.05 240.799 375.54 241.319 375.3C241.839 375.04 242.559 374.91 243.479 374.91H244.199V378.27H243.479C242.499 378.27 241.739 378.44 241.199 378.78C240.679 379.12 240.319 379.57 240.119 380.13C239.939 380.67 239.849 381.28 239.849 381.96V384H235.379ZM248.219 370.83L245.759 368.76C246.459 368.52 247.009 368.22 247.409 367.86C247.809 367.48 248.019 367.02 248.039 366.48H251.969C251.969 367.1 251.839 367.7 251.579 368.28C251.339 368.84 250.939 369.34 250.379 369.78C249.839 370.22 249.119 370.57 248.219 370.83ZM262.835 384.39C261.015 384.39 259.535 384.12 258.395 383.58C257.275 383.02 256.455 382.21 255.935 381.15C255.415 380.09 255.155 378.79 255.155 377.25V367.56H259.625V377.49C259.625 378.59 259.875 379.42 260.375 379.98C260.895 380.54 261.735 380.82 262.895 380.82C264.015 380.82 264.815 380.56 265.295 380.04C265.775 379.5 266.015 378.65 266.015 377.49V367.56H270.485V377.25C270.485 378.79 270.225 380.09 269.705 381.15C269.185 382.21 268.365 383.02 267.245 383.58C266.125 384.12 264.655 384.39 262.835 384.39ZM264.755 377.46C263.815 377.46 263.065 377.31 262.505 377.01C261.965 376.69 261.585 376.29 261.365 375.81C261.145 375.31 261.035 374.81 261.035 374.31C261.035 373.95 261.085 373.57 261.185 373.17C261.285 372.77 261.435 372.45 261.635 372.21L264.305 372.75C264.245 372.87 264.195 373.01 264.155 373.17C264.135 373.31 264.125 373.45 264.125 373.59C264.125 373.85 264.205 374.08 264.365 374.28C264.525 374.46 264.745 374.55 265.025 374.55H272.225V377.46H264.755ZM279.479 384.3C278.619 384.3 277.869 384.16 277.229 383.88C276.609 383.6 276.119 383.18 275.759 382.62C275.419 382.04 275.249 381.32 275.249 380.46V378.51C275.249 377.33 275.509 376.46 276.029 375.9C276.549 375.34 277.269 374.92 278.189 374.64L278.219 374.52L274.949 373.35V372.57C274.949 371.55 275.229 370.64 275.789 369.84C276.369 369.02 277.209 368.37 278.309 367.89C279.409 367.41 280.749 367.17 282.329 367.17C283.809 367.17 285.079 367.4 286.139 367.86C287.219 368.3 288.049 368.97 288.629 369.87C289.209 370.75 289.499 371.86 289.499 373.2V377.7C289.499 378.66 289.709 379.35 290.129 379.77C290.549 380.19 291.069 380.4 291.689 380.4C292.269 380.4 292.769 380.24 293.189 379.92C293.609 379.58 293.939 379.12 294.179 378.54C294.419 377.94 294.539 377.24 294.539 376.44V367.56H299.039V384H295.559L295.049 381.42H294.809C294.449 382.26 293.859 382.95 293.039 383.49C292.239 384.03 291.239 384.3 290.039 384.3C288.399 384.3 287.159 383.87 286.319 383.01C285.499 382.13 285.089 380.75 285.089 378.87V373.53C285.089 372.83 284.959 372.28 284.699 371.88C284.459 371.46 284.129 371.16 283.709 370.98C283.289 370.8 282.809 370.71 282.269 370.71C281.509 370.71 280.879 370.88 280.379 371.22C279.879 371.54 279.609 372.03 279.569 372.69L282.179 373.95L281.879 375.9C281.139 375.92 280.579 376.1 280.199 376.44C279.819 376.76 279.629 377.33 279.629 378.15V379.98C279.629 380.42 279.719 380.74 279.899 380.94C280.099 381.12 280.409 381.21 280.829 381.21C281.009 381.21 281.189 381.2 281.369 381.18C281.569 381.14 281.739 381.09 281.879 381.03L282.299 383.7C281.919 383.9 281.489 384.05 281.009 384.15C280.529 384.25 280.019 384.3 279.479 384.3ZM293.474 365.94C293.314 365.66 293.184 365.3 293.084 364.86C292.964 364.42 292.904 363.98 292.904 363.54C292.904 362.98 293.014 362.47 293.234 362.01C293.434 361.55 293.804 361.19 294.344 360.93C294.864 360.65 295.584 360.51 296.504 360.51H300.854V363.54H297.974C297.594 363.54 297.304 363.61 297.104 363.75C296.884 363.87 296.774 364.1 296.774 364.44C296.774 364.58 296.794 364.73 296.834 364.89C296.874 365.03 296.934 365.18 297.014 365.34L293.474 365.94Z" fill="white"/>
<defs>
<filter id="filter0_b_261_1421" x="-32" y="-32" width="492" height="910" filterUnits="userSpaceOnUse" color-interpolation-filters="sRGB">
<feFlood flood-opacity="0" result="BackgroundImageFix"/>
<feGaussianBlur in="BackgroundImage" stdDeviation="16"/>
<feComposite in2="SourceAlpha" operator="in" result="effect1_backgroundBlur_261_1421"/>
<feBlend mode="normal" in="SourceGraphic" in2="effect1_backgroundBlur_261_1421" result="shape"/>
</filter>
<linearGradient id="paint0_linear_261_1421" x1="212.521" y1="-368.426" x2="212.521" y2="457.5" gradientUnits="userSpaceOnUse">
<stop stop-color="#ECBE79"/>
<stop offset="1" stop-color="#D3918C"/>
</linearGradient>
<linearGradient id="paint1_linear_261_1421" x1="214" y1="-8.18089" x2="214" y2="846" gradientUnits="userSpaceOnUse">
<stop stop-color="#3C2958" stop-opacity="0"/>
<stop offset="1" stop-color="#2B1F3C"/>
</linearGradient>
<linearGradient id="paint2_linear_261_1421" x1="312" y1="-46.5" x2="-108" y2="931.5" gradientUnits="userSpaceOnUse">
<stop stop-color="#D7314E"/>
<stop offset="1" stop-color="#E6B3FF" stop-opacity="0.23401"/>
<stop offset="1" stop-color="#98A8E9"/>
</linearGradient>
</defs>
</svg>
