<svg width="394" height="630" viewBox="0 0 394 630" fill="none" xmlns="http://www.w3.org/2000/svg">
<g filter="url(#filter0_d_213_837)">
<rect x="15" y="11" width="364" height="600" rx="27" fill="#FBF7F0"/>
</g>
<path d="M57.3274 39.4398C57.5157 38.7568 58.4843 38.7568 58.6726 39.4398L60.8498 47.3373C60.9363 47.6513 61.2285 47.8636 61.5538 47.8489L69.7376 47.479C70.4454 47.447 70.7447 48.3682 70.1533 48.7583L63.3151 53.2694C63.0433 53.4488 62.9316 53.7923 63.0461 54.0971L65.9269 61.7661C66.176 62.4293 65.3924 62.9987 64.8386 62.5568L58.4351 57.4472C58.1806 57.2441 57.8194 57.2441 57.5649 57.4472L51.1614 62.5568C50.6076 62.9987 49.824 62.4293 50.0731 61.7661L52.9539 54.0971C53.0684 53.7923 52.9567 53.4488 52.6849 53.2694L45.8467 48.7583C45.2553 48.3682 45.5546 47.447 46.2623 47.479L54.4462 47.8489C54.7715 47.8636 55.0637 47.6513 55.1502 47.3373L57.3274 39.4398Z" fill="#FF4949"/>
<path d="M57.3274 552.44C57.5157 551.757 58.4843 551.757 58.6726 552.44L60.8498 560.337C60.9363 560.651 61.2285 560.864 61.5538 560.849L69.7376 560.479C70.4454 560.447 70.7447 561.368 70.1533 561.758L63.3151 566.269C63.0433 566.449 62.9316 566.792 63.0461 567.097L65.9269 574.766C66.176 575.429 65.3924 575.999 64.8386 575.557L58.4351 570.447C58.1806 570.244 57.8194 570.244 57.5649 570.447L51.1614 575.557C50.6076 575.999 49.824 575.429 50.0731 574.766L52.9539 567.097C53.0684 566.792 52.9567 566.449 52.6849 566.269L45.8467 561.758C45.2553 561.368 45.5546 560.447 46.2623 560.479L54.4462 560.849C54.7715 560.864 55.0637 560.651 55.1502 560.337L57.3274 552.44Z" fill="#FF4949"/>
<path d="M337.327 552.44C337.516 551.757 338.484 551.757 338.673 552.44L340.85 560.337C340.936 560.651 341.229 560.864 341.554 560.849L349.738 560.479C350.445 560.447 350.745 561.368 350.153 561.758L343.315 566.269C343.043 566.449 342.932 566.792 343.046 567.097L345.927 574.766C346.176 575.429 345.392 575.999 344.839 575.557L338.435 570.447C338.181 570.244 337.819 570.244 337.565 570.447L331.161 575.557C330.608 575.999 329.824 575.429 330.073 574.766L332.954 567.097C333.068 566.792 332.957 566.449 332.685 566.269L325.847 561.758C325.255 561.368 325.555 560.447 326.262 560.479L334.446 560.849C334.771 560.864 335.064 560.651 335.15 560.337L337.327 552.44Z" fill="#FF4949"/>
<path d="M337.327 39.4398C337.516 38.7568 338.484 38.7568 338.673 39.4398L340.85 47.3373C340.936 47.6513 341.229 47.8636 341.554 47.8489L349.738 47.479C350.445 47.447 350.745 48.3682 350.153 48.7583L343.315 53.2694C343.043 53.4488 342.932 53.7923 343.046 54.0971L345.927 61.7661C346.176 62.4293 345.392 62.9987 344.839 62.5568L338.435 57.4472C338.181 57.2441 337.819 57.2441 337.565 57.4472L331.161 62.5568C330.608 62.9987 329.824 62.4293 330.073 61.7661L332.954 54.0971C333.068 53.7923 332.957 53.4488 332.685 53.2694L325.847 48.7583C325.255 48.3682 325.555 47.447 326.262 47.479L334.446 47.8489C334.771 47.8636 335.064 47.6513 335.15 47.3373L337.327 39.4398Z" fill="#FF4949"/>
<rect x="29.5" y="26.5" width="336" height="569" rx="23.665" stroke="black"/>
<circle cx="283.5" cy="482.5" r="30" stroke="#2CD997"/>
<path d="M283.568 475.312C283.658 475.465 283.822 475.56 284 475.56C284.178 475.56 284.342 475.466 284.432 475.312C285.932 472.739 288.559 471.512 291.157 471.512C294.911 471.512 298.5 474.054 298.5 478.739C298.5 481.459 296.869 484.286 294.134 487.489C292.098 489.873 289.51 492.402 286.649 495.198C285.788 496.039 284.902 496.904 284 497.796C283.096 496.902 282.209 496.035 281.346 495.192C278.488 492.399 275.901 489.871 273.867 487.489C271.131 484.286 269.5 481.459 269.5 478.739C269.5 474.061 273.094 471.5 276.851 471.5C279.441 471.5 282.062 472.726 283.568 475.312Z" stroke="#2CD997" stroke-linejoin="round"/>
<circle cx="113.5" cy="482.5" r="30" stroke="#FF4949"/>
<path fill-rule="evenodd" clip-rule="evenodd" d="M100.893 475.093C99.4571 473.657 99.4571 471.329 100.893 469.893C102.329 468.456 104.658 468.456 106.094 469.893L127.107 490.905C128.543 492.342 128.543 494.67 127.107 496.106C125.671 497.542 123.342 497.542 121.906 496.106L100.893 475.093ZM101.6 470.6C100.555 471.645 100.555 473.34 101.6 474.386L122.613 495.399C123.659 496.445 125.354 496.445 126.4 495.399C127.445 494.353 127.445 492.658 126.4 491.613L105.387 470.6C104.341 469.554 102.646 469.554 101.6 470.6ZM127.107 475.093C128.543 473.657 128.543 471.329 127.107 469.893C125.671 468.456 123.342 468.456 121.906 469.893L100.893 490.905C99.4572 492.342 99.4571 494.67 100.893 496.106C102.329 497.542 104.658 497.542 106.094 496.106L127.107 475.093ZM126.4 470.6C127.445 471.645 127.445 473.34 126.4 474.386L105.387 495.399C104.341 496.445 102.646 496.445 101.6 495.399C100.555 494.353 100.555 492.658 101.6 491.613L122.613 470.6C123.659 469.554 125.354 469.554 126.4 470.6Z" fill="#FF4949"/>
<defs>
<filter id="filter0_d_213_837" x="0" y="0" width="394" height="630" filterUnits="userSpaceOnUse" color-interpolation-filters="sRGB">
<feFlood flood-opacity="0" result="BackgroundImageFix"/>
<feColorMatrix in="SourceAlpha" type="matrix" values="0 0 0 0 0 0 0 0 0 0 0 0 0 0 0 0 0 0 127 0" result="hardAlpha"/>
<feOffset dy="4"/>
<feGaussianBlur stdDeviation="7.5"/>
<feComposite in2="hardAlpha" operator="out"/>
<feColorMatrix type="matrix" values="0 0 0 0 0 0 0 0 0 0 0 0 0 0 0 0 0 0 0.2 0"/>
<feBlend mode="normal" in2="BackgroundImageFix" result="effect1_dropShadow_213_837"/>
<feBlend mode="normal" in="SourceGraphic" in2="effect1_dropShadow_213_837" result="shape"/>
</filter>
</defs>
</svg>
