<svg width="169" height="58" viewBox="0 0 169 58" fill="none" xmlns="http://www.w3.org/2000/svg">
<path d="M23.8607 0.610098L2.30379 12.8663C0.877635 13.6798 0 15.144 0 16.7709V41.2291C0 42.856 0.877635 44.3202 2.30379 45.1337L23.8607 57.3899C25.2869 58.2034 26.9873 58.2034 28.4135 57.3899L49.9704 45.1337C51.3966 44.3202 52.2742 42.856 52.2742 41.2291V16.7709C52.2742 15.144 51.3966 13.6798 49.9704 12.8663L28.4135 0.610098C27.0422 -0.203366 25.2869 -0.203366 23.8607 0.610098ZM48.1603 43.9949L28.3038 55.2749C26.9325 56.0341 25.2869 56.0341 23.9156 55.2749L4.05907 43.9949C2.68776 43.2356 1.86497 41.7714 1.86497 40.1987V17.7471C1.86497 16.1744 2.68776 14.7644 4.05907 13.9509L23.9156 2.67088C25.2869 1.91164 26.9325 1.91164 28.3038 2.67088L48.1603 13.9509C49.5316 14.7101 50.3544 16.1744 50.3544 17.7471V40.2529C50.4092 41.8256 49.5316 43.2356 48.1603 43.9949Z" fill="#FFCB11"/>
<path d="M27.3167 27.2919C26.1648 27.9426 25.2323 29.5153 25.2323 30.8711V32.6607C25.2323 33.4742 25.5614 34.125 26.1648 34.5046C26.7682 34.83 27.5361 34.83 28.2492 34.3961L44.4306 25.1769C44.7049 25.3396 45.0889 25.448 45.4728 25.448C46.5699 25.448 47.4475 24.5803 47.4475 23.4957C47.4475 22.4111 46.5699 21.5434 45.4728 21.5434C44.3758 21.5434 43.4981 22.4111 43.4981 23.4957V23.5499L27.3167 32.7692C27.207 32.8234 27.1522 32.8234 27.0973 32.8777C27.0973 32.8234 27.0973 32.7692 27.0973 32.6607V30.8711C27.0973 30.1661 27.6458 29.2442 28.2492 28.9188L44.3209 19.7538C45.034 19.3199 45.4728 18.7234 45.4728 18.0184C45.4728 17.3134 45.034 16.7168 44.3209 16.283L28.2492 7.11796C27.0973 6.46719 25.2323 6.46719 24.0804 7.11796L8.00871 16.283C6.85681 16.9338 5.92432 18.5065 5.92432 19.8622V27.1292C5.92432 28.485 6.85681 30.0034 8.00871 30.7084L24.0804 39.8735C25.2323 40.5242 27.0973 40.5242 28.2492 39.8735L44.3209 30.7084C44.4306 30.6542 44.4855 30.6542 44.5403 30.6C44.5403 30.6542 44.5403 30.7084 44.5403 30.8169V38.0838C44.5403 38.7888 43.9918 39.7108 43.3884 40.0361L27.3167 49.2012C26.7133 49.5266 25.6163 49.5266 25.0129 49.2012L8.94119 40.0361C8.33782 39.7108 7.7893 38.7346 7.7893 38.0838V36.3484C7.7893 36.24 7.7893 36.1857 7.7893 36.1315C7.84415 36.1315 7.899 36.1857 8.00871 36.24L23.3125 44.9169C23.3674 45.9473 24.245 46.7065 25.2872 46.7065C26.3842 46.7065 27.2619 45.8389 27.2619 44.7542C27.2619 43.6696 26.3842 42.8019 25.2872 42.8019C24.8484 42.8019 24.4095 42.9646 24.0804 43.1815L8.94119 34.5588C8.22811 34.125 7.46019 34.125 6.85681 34.4504C6.25344 34.7757 5.92432 35.4807 5.92432 36.2942V38.0838C5.92432 39.4396 6.85681 40.9581 8.00871 41.6631L24.0804 50.8281C24.6838 51.1535 25.3969 51.3162 26.1648 51.3162C26.9327 51.3162 27.6458 51.1535 28.2492 50.8281L44.3209 41.6631C45.4728 41.0123 46.4053 39.4396 46.4053 38.0838V30.8169C46.4053 30.0034 46.0762 29.3526 45.4728 28.973C44.8694 28.6476 44.1015 28.6476 43.3884 29.0815L27.3167 38.2465C26.7133 38.5719 25.6163 38.5719 25.0129 38.2465L8.94119 29.0815C8.33782 28.7561 7.7893 27.78 7.7893 27.1292V19.8622C7.7893 19.1572 8.33782 18.2353 8.94119 17.9099L25.0129 8.74489C25.6163 8.4195 26.7133 8.4195 27.3167 8.74489L43.3884 17.9099C43.4981 17.9642 43.553 18.0184 43.553 18.0184C43.4981 18.0726 43.4433 18.0726 43.3884 18.1268L27.3167 27.2919Z" fill="white"/>
<path d="M72.679 25.0677C72.5144 25.2304 72.3498 25.2847 72.1304 25.2847H70.2106C69.9363 25.2847 69.6621 25.2304 69.4975 25.122C69.333 25.0135 69.1684 24.8508 69.0587 24.6339C68.7296 24.1458 68.2908 23.712 67.6874 23.4408C67.084 23.1154 66.3161 22.9527 65.2739 22.9527C64.2866 22.9527 63.4638 23.1697 62.7507 23.5493C62.0925 23.9289 61.7085 24.4712 61.7085 25.1762C61.7085 25.7185 61.873 26.1524 62.2022 26.4235C62.5313 26.6947 63.025 26.9658 63.6832 27.1828C64.3414 27.3997 65.4933 27.6166 67.0292 27.942C69.2781 28.4301 70.8688 29.0808 71.8562 29.8943C72.8435 30.762 73.3372 31.9009 73.3372 33.3651C73.3372 34.4497 73.0081 35.4259 72.3498 36.2936C71.6916 37.1613 70.7591 37.812 69.5524 38.3001C68.3456 38.7882 66.9195 39.0051 65.3287 39.0051C63.9574 39.0051 62.641 38.7882 61.4342 38.3543C60.2275 37.9205 59.295 37.3239 58.5271 36.5105C57.814 35.697 57.3752 34.7751 57.3203 33.7447C57.3203 33.5278 57.3752 33.3651 57.5397 33.2024C57.7043 33.0939 57.8688 32.9855 58.0882 32.9855H60.0081C60.2823 32.9855 60.5566 33.0397 60.7211 33.1482C60.8857 33.2566 61.0503 33.4193 61.16 33.6362C61.4891 34.2328 61.9279 34.7209 62.5313 35.0462C63.1347 35.4259 64.0671 35.5886 65.3287 35.5886C66.5355 35.5886 67.5777 35.4259 68.3456 34.992C69.1684 34.6124 69.5524 34.0701 69.5524 33.2566C69.5524 32.8228 69.3878 32.4974 69.0587 32.2262C68.7296 31.9551 68.2908 31.7382 67.7422 31.5755C67.1937 31.4128 66.3161 31.1958 65.1642 30.9247C64.7254 30.8162 64.122 30.7078 63.3541 30.5451C61.4342 30.057 60.0081 29.4062 59.1853 28.5928C58.3077 27.7793 57.9237 26.5862 57.9237 25.0135C57.9237 23.9289 58.2528 23.007 58.8562 22.1393C59.5144 21.2716 60.3372 20.6208 61.4891 20.1327C62.5861 19.6447 63.8477 19.4277 65.219 19.4277C66.7549 19.4277 68.1262 19.6989 69.2232 20.187C70.3751 20.675 71.1979 21.3258 71.8013 22.1393C72.4047 22.8985 72.7338 23.6577 72.7886 24.417C72.8984 24.7424 72.8435 24.9593 72.679 25.0677Z" fill="white"/>
<path d="M79.92 38.0836C79.92 38.3005 79.8652 38.4632 79.7006 38.5717C79.5361 38.7343 79.3715 38.7886 79.1521 38.7886H77.0677C76.8483 38.7886 76.6838 38.7343 76.5192 38.5717C76.3547 38.409 76.2998 38.2463 76.2998 38.0836V20.2958C76.2998 20.0789 76.3547 19.9162 76.5192 19.8077C76.6838 19.6451 76.8483 19.5908 77.0677 19.5908H79.1521C79.3715 19.5908 79.5361 19.6451 79.7006 19.8077C79.8652 19.9704 79.92 20.1331 79.92 20.2958V28.8101L84.5276 25.1224C84.7471 24.9597 84.9116 24.8512 85.0762 24.797C85.2407 24.7428 85.4053 24.6885 85.6247 24.6885H88.4221C88.5867 24.6885 88.7513 24.7428 88.9158 24.9055C89.0255 25.0139 89.1352 25.1766 89.1352 25.3935C89.1352 25.6105 89.0255 25.7732 88.8061 25.9358L82.3884 31.0335L89.4095 37.6497C89.5741 37.8124 89.6838 38.0293 89.6838 38.1378C89.6838 38.3005 89.6289 38.4632 89.4644 38.6259C89.3546 38.7343 89.1901 38.7886 88.9707 38.7886H86.2829C85.8989 38.7886 85.515 38.6259 85.131 38.3005L79.8652 33.3655V38.0836H79.92Z" fill="white"/>
<path d="M95.0042 28.3216C94.4009 28.7554 94.0169 29.4604 93.9072 30.4908C93.9072 30.6535 93.9072 31.0873 93.9072 31.7381C93.9072 32.3889 93.9072 32.7685 93.9072 32.9312C94.0169 33.9616 94.4009 34.6666 95.0042 35.1004C95.6076 35.5343 96.3756 35.7512 97.2532 35.7512C98.1308 35.7512 98.8988 35.5343 99.5021 35.1004C100.106 34.6666 100.489 33.9073 100.599 32.9312C100.654 32.5516 100.654 32.172 100.654 31.7381C100.654 31.3043 100.654 30.8704 100.599 30.4908C100.489 29.4604 100.106 28.7554 99.5021 28.3216C98.8988 27.8877 98.1308 27.6708 97.2532 27.6708C96.3756 27.6708 95.6076 27.8877 95.0042 28.3216ZM104.219 31.7923C104.219 32.2804 104.219 32.7143 104.165 33.1481C104.055 34.2327 103.726 35.2631 103.122 36.1308C102.519 37.0527 101.751 37.7577 100.709 38.2458C99.6667 38.7881 98.5148 39.0051 97.1983 39.0051C95.8819 39.0051 94.73 38.7339 93.6878 38.2458C92.6456 37.7035 91.8777 36.9985 91.2743 36.1308C90.6709 35.2089 90.3418 34.2327 90.2321 33.1481C90.2321 32.9312 90.1772 32.4973 90.1772 31.7923C90.1772 31.0873 90.1772 30.6535 90.2321 30.4366C90.3418 29.2977 90.6709 28.3216 91.2743 27.3996C91.8777 26.4777 92.6456 25.7727 93.6878 25.2846C94.73 24.7423 95.8819 24.5254 97.1983 24.5254C98.5148 24.5254 99.6667 24.7965 100.709 25.2846C101.751 25.8269 102.519 26.5319 103.122 27.3996C103.726 28.3216 104.055 29.2977 104.165 30.4366C104.219 30.8162 104.219 31.3043 104.219 31.7923Z" fill="white"/>
<path d="M111.405 28.3216C110.802 28.7554 110.418 29.4604 110.308 30.4908C110.308 30.6535 110.308 31.0873 110.308 31.7381C110.308 32.3889 110.308 32.7685 110.308 32.9312C110.418 33.9616 110.802 34.6666 111.405 35.1004C112.008 35.5343 112.776 35.7512 113.654 35.7512C114.532 35.7512 115.299 35.5343 115.903 35.1004C116.506 34.6666 116.89 33.9073 117 32.9312C117.055 32.5516 117.055 32.172 117.055 31.7381C117.055 31.3043 117.055 30.8704 117 30.4908C116.89 29.4604 116.506 28.7554 115.903 28.3216C115.299 27.8877 114.532 27.6708 113.654 27.6708C112.776 27.6708 112.063 27.8877 111.405 28.3216ZM120.675 31.7923C120.675 32.2804 120.675 32.7143 120.62 33.1481C120.51 34.2327 120.181 35.2631 119.578 36.1308C118.975 37.0527 118.207 37.7577 117.164 38.2458C116.122 38.7881 114.97 39.0051 113.654 39.0051C112.337 39.0051 111.186 38.7339 110.143 38.2458C109.101 37.7035 108.333 36.9985 107.73 36.1308C107.126 35.2089 106.797 34.2327 106.688 33.1481C106.688 32.9312 106.633 32.4973 106.633 31.7923C106.633 31.0873 106.633 30.6535 106.688 30.4366C106.797 29.2977 107.126 28.3216 107.73 27.3996C108.333 26.4777 109.101 25.7727 110.143 25.2846C111.186 24.7423 112.337 24.5254 113.654 24.5254C114.97 24.5254 116.122 24.7965 117.164 25.2846C118.207 25.8269 118.975 26.5319 119.578 27.3996C120.181 28.3216 120.51 29.2977 120.62 30.4366C120.675 30.8162 120.675 31.3043 120.675 31.7923Z" fill="white"/>
<path d="M127.147 38.5712C126.983 38.7339 126.818 38.7881 126.599 38.7881H124.515C124.295 38.7881 124.131 38.7339 123.966 38.5712C123.801 38.4085 123.747 38.2458 123.747 38.0831V20.2954C123.747 20.0784 123.801 19.9158 123.966 19.7531C124.131 19.5904 124.295 19.5361 124.515 19.5361H126.599C126.818 19.5361 126.983 19.5904 127.147 19.7531C127.312 19.9158 127.367 20.0784 127.367 20.2954V38.0831C127.367 38.2458 127.312 38.4627 127.147 38.5712Z" fill="white"/>
<path d="M135.046 34.8297C135.649 35.4805 136.472 35.8059 137.569 35.8059C138.502 35.8059 139.27 35.5347 139.873 34.9924C140.476 34.4501 140.805 33.6909 140.915 32.7689C140.97 32.3893 140.97 32.0639 140.97 31.7386C140.97 31.4132 140.97 31.0878 140.915 30.7082C140.805 29.7862 140.476 29.027 139.873 28.4847C139.27 27.9424 138.502 27.6712 137.569 27.6712C136.637 27.6712 135.869 27.9424 135.265 28.4847C134.662 29.027 134.278 29.8405 134.168 30.9793C134.168 31.142 134.113 31.4132 134.113 31.7386C134.113 33.1486 134.443 34.1247 135.046 34.8297ZM140.915 20.2958C140.915 20.0789 140.97 19.9162 141.135 19.8077C141.299 19.6451 141.464 19.5908 141.683 19.5908H143.767C143.987 19.5908 144.151 19.6451 144.316 19.8077C144.481 19.9704 144.535 20.1331 144.535 20.2958V38.0836C144.535 38.3005 144.481 38.4632 144.316 38.5717C144.151 38.7343 143.987 38.7886 143.767 38.7886H141.683C141.464 38.7886 141.299 38.7343 141.135 38.5717C140.97 38.409 140.915 38.2463 140.915 38.0836V37.4328C140.531 37.8666 139.983 38.2463 139.324 38.5717C138.666 38.897 137.789 39.0597 136.746 39.0597C135.54 39.0597 134.497 38.7886 133.565 38.192C132.632 37.5955 131.919 36.8363 131.426 35.8601C130.932 34.8839 130.603 33.8536 130.548 32.7147L130.493 31.7928L130.548 30.8709C130.603 29.732 130.877 28.7016 131.426 27.7255C131.919 26.7493 132.632 25.9901 133.565 25.3935C134.497 24.797 135.54 24.5258 136.746 24.5258C137.734 24.5258 138.611 24.6885 139.27 25.0139C139.928 25.3393 140.476 25.7189 140.915 26.1528V20.2958Z" fill="white"/>
<path d="M151.667 38.5712C151.502 38.7339 151.338 38.7881 151.118 38.7881H149.034C148.814 38.7881 148.65 38.7339 148.485 38.5712C148.321 38.4085 148.266 38.2458 148.266 38.0831V25.4473C148.266 25.2304 148.321 25.0677 148.485 24.9592C148.65 24.7965 148.814 24.7423 149.034 24.7423H151.118C151.338 24.7423 151.502 24.7965 151.667 24.9592C151.831 25.1219 151.886 25.2846 151.886 25.4473V38.0831C151.886 38.2458 151.831 38.4627 151.667 38.5712ZM151.831 19.7531C151.996 19.9158 152.051 20.0784 152.051 20.2954V22.4104C152.051 22.6273 151.996 22.79 151.831 22.8984C151.667 23.0611 151.502 23.1154 151.283 23.1154H148.924C148.705 23.1154 148.54 23.0611 148.376 22.8984C148.211 22.7358 148.156 22.5731 148.156 22.4104V20.2954C148.156 20.0784 148.211 19.9158 148.376 19.7531C148.54 19.5904 148.705 19.5361 148.924 19.5361H151.283C151.502 19.5361 151.667 19.6446 151.831 19.7531Z" fill="white"/>
<path d="M159.785 28.3216C159.182 28.7554 158.798 29.4604 158.688 30.4908C158.688 30.6535 158.688 31.0873 158.688 31.7381C158.688 32.3889 158.688 32.7685 158.688 32.9312C158.798 33.9616 159.182 34.6666 159.785 35.1004C160.388 35.5343 161.156 35.7512 162.034 35.7512C162.912 35.7512 163.68 35.5343 164.283 35.1004C164.886 34.6666 165.27 33.9073 165.38 32.9312C165.435 32.5516 165.435 32.172 165.435 31.7381C165.435 31.3043 165.435 30.8704 165.38 30.4908C165.27 29.4604 164.886 28.7554 164.283 28.3216C163.68 27.8877 162.912 27.6708 162.034 27.6708C161.156 27.6708 160.388 27.8877 159.785 28.3216ZM169 31.7923C169 32.2804 169 32.7143 168.945 33.1481C168.836 34.2327 168.507 35.2631 167.903 36.1308C167.3 37.0527 166.532 37.7577 165.49 38.2458C164.447 38.7881 163.296 39.0051 161.979 39.0051C160.663 39.0051 159.511 38.7339 158.469 38.2458C157.426 37.7035 156.658 36.9985 156.055 36.1308C155.452 35.2089 155.123 34.2327 155.013 33.1481C155.013 32.9312 154.958 32.4973 154.958 31.7923C154.958 31.0873 154.958 30.6535 155.013 30.4366C155.123 29.2977 155.452 28.3216 156.055 27.3996C156.658 26.4777 157.426 25.7727 158.469 25.2846C159.511 24.7423 160.663 24.5254 161.979 24.5254C163.296 24.5254 164.447 24.7965 165.49 25.2846C166.532 25.8269 167.3 26.5319 167.903 27.3996C168.507 28.3216 168.836 29.2977 168.945 30.4366C169 30.8162 169 31.3043 169 31.7923Z" fill="white"/>
</svg>
